<svg width="20" height="18" viewBox="0 0 20 18" fill="none" xmlns="http://www.w3.org/2000/svg">
<path d="M9.515 17.23L13.873 6.23H14.896L19.254 17.23H18.173L16.983 14.18H11.785L10.596 17.23H9.515ZM1.635 14.346L0.927 13.638L5.823 8.722C5.25233 8.13867 4.68467 7.42067 4.12 6.568C3.55533 5.71533 3.137 4.936 2.865 4.23H3.945C4.189 4.79 4.558 5.43333 5.052 6.16C5.54533 6.88733 6.03833 7.50567 6.531 8.015C7.401 7.131 8.17367 6.16133 8.849 5.106C9.52367 4.05 9.97233 3.09133 10.195 2.23H0V1.23H6.115V0H7.115V1.23H13.231V2.23H11.234C10.9353 3.27667 10.4263 4.39133 9.707 5.574C8.98767 6.75733 8.16467 7.81067 7.238 8.734L9.773 11.338L9.388 12.368L6.531 9.436L1.635 14.346ZM12.123 13.276H16.646L14.384 7.465L12.123 13.276Z" fill="#EEEEEE"/>
</svg>
