<svg width="15" height="16" viewBox="0 0 15 16" fill="none" xmlns="http://www.w3.org/2000/svg">
<path d="M12.7005 0C13.638 0 14.393 0.758 14.4375 1.651V16L12.6535 14.4845L11.6745 13.594L10.604 12.6615L11.0495 14.1305H1.6925C0.7575 14.1305 0 13.422 0 12.4795V1.654C0 0.761 0.758 0.003 1.6955 0.003H12.6955L12.7005 0ZM8.622 3.789H8.601L8.4655 3.922C9.8485 4.323 10.5175 4.948 10.5175 4.948C9.627 4.5025 8.822 4.2785 8.02 4.1875C7.442 4.099 6.861 4.146 6.3715 4.1875H6.236C5.9235 4.1875 5.257 4.323 4.3635 4.6795C4.0535 4.815 3.874 4.9035 3.874 4.9035C3.874 4.9035 4.5405 4.234 6.0145 3.8775L5.9235 3.789C5.9235 3.789 4.809 3.7445 3.606 4.6355C3.606 4.6355 2.403 6.732 2.403 9.315C2.403 9.315 3.0695 10.474 4.898 10.518C4.898 10.518 5.166 10.164 5.4345 9.8515C4.4085 9.539 4.0075 8.914 4.0075 8.914C4.0075 8.914 4.0985 8.9585 4.2315 9.047H4.2705C4.2915 9.047 4.302 9.0575 4.312 9.068V9.073C4.3225 9.0835 4.333 9.091 4.351 9.091C4.5725 9.182 4.791 9.2705 4.971 9.359C5.2835 9.492 5.682 9.627 6.1715 9.716C6.7915 9.807 7.502 9.849 8.312 9.716C8.7105 9.625 9.1115 9.539 9.5125 9.359C9.7705 9.226 10.0905 9.0935 10.442 8.867C10.442 8.867 10.0435 9.492 8.973 9.8045C9.192 10.1145 9.5015 10.471 9.5015 10.471C11.332 10.4295 12.043 9.2705 12.082 9.32C12.082 6.7395 10.871 4.6405 10.871 4.6405C9.7825 3.8305 8.7615 3.7995 8.582 3.7995L8.6185 3.7865L8.622 3.789ZM8.734 6.732C9.203 6.732 9.5805 7.1305 9.5805 7.62C9.5805 8.115 9.2005 8.513 8.734 8.513C8.265 8.513 7.8875 8.1145 7.8875 7.625C7.8875 7.13 8.2675 6.732 8.734 6.732ZM5.7055 6.732C6.1715 6.732 6.5495 7.1305 6.5495 7.62C6.5495 8.115 6.1695 8.513 5.703 8.513C5.234 8.513 4.854 8.1145 4.854 7.625C4.854 7.13 5.234 6.732 5.703 6.732H5.7055Z" fill="#7A7A7A"/>
</svg>
